<svg width="34" height="34" viewBox="0 0 34 34" fill="none" xmlns="http://www.w3.org/2000/svg">
<path fill-rule="evenodd" clip-rule="evenodd" d="M30.0773 0H3.92275C1.75667 0 0 1.75667 0 3.92275V30.0744C0 32.2433 1.75667 34 3.92275 34H30.0787C32.2447 34 34 32.2433 34 30.0744V3.92275C34 1.75667 32.2448 0 30.0773 0V0ZM17 10.4621C20.6111 10.4621 23.5393 13.3875 23.5393 17C23.5393 20.6111 20.6111 23.5393 17 23.5393C13.3889 23.5393 10.4621 20.6097 10.4621 17C10.4621 13.3875 13.3889 10.4621 17 10.4621V10.4621ZM29.75 28.4438C29.75 29.1649 29.1649 29.75 28.441 29.75H5.559C4.83508 29.75 4.25 29.1649 4.25 28.4438V14.1667H6.93742C6.81275 14.6129 6.72067 15.0733 6.65408 15.5422C6.58325 16.0197 6.53933 16.5042 6.53933 17C6.53933 22.7786 11.2228 27.4621 17 27.4621C22.7772 27.4621 27.4607 22.7786 27.4607 17C27.4607 16.5042 27.4167 16.0197 27.3459 15.5437C27.2793 15.0747 27.1873 14.6143 27.0626 14.1681H29.75V28.4438V28.4438ZM29.75 8.63883C29.75 9.35992 29.1649 9.94642 28.441 9.94642H25.3612C24.6372 9.94642 24.0536 9.35992 24.0536 8.63883V5.55758C24.0536 4.83508 24.6372 4.25 25.3612 4.25H28.441C29.1649 4.25 29.75 4.83508 29.75 5.55758V8.63883Z" fill="white"/>
</svg>
